<?xml version="1.0" encoding="UTF-8"?><svg id="Layer_1" xmlns="http://www.w3.org/2000/svg" viewBox="0 0 4016.24 1000"  width="180" height="42"><defs><style>.cls-1{fill:#fff;}</style></defs><g><path fill="#fff" d=" m941.8,346.63h139c63.09,0,104,36.97,104,87.24,0,35.49-19.22,61.12-49.29,73.93,39.43,11.34,67.53,43.38,67.53,85.27,0,57.67-40.91,98.58-111.89,98.58h-149.35v-345.03Zm128.16,142.94c29.57,0,51.26-15.77,51.26-47.32s-23.17-45.84-51.75-45.84h-63.09v93.16h63.58Zm10.84,152.31c31.05,0,57.18-15.77,57.18-52.25s-26.12-52.74-59.64-52.74h-71.97v104.99h74.43Z"/><path fill="#fff" d=" m1222.5,566.96c0-76.4,40.91-131.61,110.41-131.61,35.49,0,62.1,16.27,78.86,44.36v-37.46h60.63v249.41h-60.63v-37.46c-16.76,27.6-43.38,44.36-78.86,44.36-69.5,0-110.41-55.21-110.41-131.61Zm125.2,80.84c40.91,0,63.09-33.02,63.09-80.84s-22.18-80.84-63.09-80.84-63.09,33.02-63.09,80.84,22.67,80.84,63.09,80.84Z"/><path fill="#fff" d=" m1516.7,442.25h60.63v39.43c14.29-29.57,44.85-45.84,76.89-45.84,58.66,0,89.21,35.49,89.21,96.12v159.7h-62.11v-148.86c0-35.49-14.79-56.19-47.32-56.19-35,0-55.21,26.62-55.21,71.96v133.09h-62.1v-249.41Z"/><path fill="#fff" d=" m1777.93,707.44h63.09c5.92,19.22,23.66,32.04,54.22,32.04,41.9,0,58.66-26.12,58.66-64.57v-28.1c-16.27,21.69-40.91,34.5-72.46,34.5-68.02,0-108.44-51.26-108.44-122.73s40.42-123.23,108.44-123.23c33.03,0,58.16,14.79,74.43,38.94v-32.04h60.13v232.16c0,71.96-47.81,112.88-121.75,112.88-66.05,0-108.93-31.05-116.33-79.85Zm117.81-76.4c38.94,0,61.12-29.57,61.12-72.46s-22.18-72.46-61.12-72.46-60.63,29.57-60.63,72.46,22.18,72.46,60.63,72.46Z"/><path fill="#fff" d=" m2122.61,570.41v121.26h-62.1v-345.03h62.1v198.15l89.22-102.53h74.43l-101.54,112.88,114.85,136.54h-76.4l-100.55-121.26Z"/><path fill="#fff" d=" m2283.39,566.96c0-76.4,46.83-132.1,126.68-132.1s125.69,55.7,125.69,132.1-46.33,132.1-125.69,132.1-126.68-55.7-126.68-132.1Zm126.68,81.82c41.4,0,63.58-34.01,63.58-81.82s-22.18-81.82-63.58-81.82-64.57,34.5-64.57,81.82,22.68,81.82,64.57,81.82Z"/><path fill="#fff" d=" m2629.01,570.41v121.26h-62.11v-345.03h62.11v198.15l89.21-102.53h74.43l-101.54,112.88,114.85,136.54h-76.4l-100.55-121.26Z"/><path fill="#fff" d=" m2932.13,346.63h139c63.09,0,104,36.97,104,87.24,0,35.49-19.22,61.12-49.29,73.93,39.43,11.34,67.53,43.38,67.53,85.27,0,57.67-40.91,98.58-111.89,98.58h-149.35v-345.03Zm128.16,142.94c29.57,0,51.26-15.77,51.26-47.32s-23.17-45.84-51.76-45.84h-63.09v93.16h63.59Zm10.85,152.31c31.05,0,57.18-15.77,57.18-52.25s-26.12-52.74-59.64-52.74h-71.97v104.99h74.43Z"/><path fill="#fff" d=" m3212.83,566.96c0-76.4,40.91-131.61,110.41-131.61,35.49,0,62.11,16.27,78.87,44.36v-37.46h60.63v249.41h-60.63v-37.46c-16.76,27.6-43.38,44.36-78.87,44.36-69.5,0-110.41-55.21-110.41-131.61Zm125.2,80.84c40.91,0,63.09-33.02,63.09-80.84s-22.18-80.84-63.09-80.84-63.09,33.02-63.09,80.84,22.68,80.84,63.09,80.84Z"/><path fill="#fff" d=" m3507.03,442.25h60.63v39.43c14.29-29.57,44.86-45.84,76.89-45.84,58.66,0,89.22,35.49,89.22,96.12v159.7h-62.11v-148.86c0-35.49-14.79-56.19-47.32-56.19-35,0-55.2,26.62-55.2,71.96v133.09h-62.11v-249.41Z"/><path fill="#fff" d=" m3839.29,570.41v121.26h-62.1v-345.03h62.1v198.15l89.22-102.53h74.43l-101.54,112.88,114.85,136.54h-76.4l-100.55-121.26Z"/></g><path class="cls-1" d="m678.75,398.75L375,0,71.25,398.75C20,466.25,0,525,0,588.75c0,97.5,48.75,185,136.25,246.25l238.75,165,238.75-165c87.5-61.25,136.25-148.75,136.25-246.25,0-63.75-20-122.5-71.25-190Zm-352.5,420v58.75l-146.25-100c-68.75-46.25-107.5-115-107.5-185,0-36.25,10-71.25,27.5-103.75,7.5,21.25,20,42.5,47.5,73.75l155,172.5c25,28.75,23.75,46.25,23.75,83.75Zm-115-293.75c-38.75-42.5-46.25-66.25-46.25-91.25s5-45,35-83.75l175-227.5,175,227.5c28.75,38.75,35,60,35,83.75,0,25-7.5,48.75-46.25,91.25l-163.75,182.5-163.75-182.5Zm358.75,252.5l-146.25,100v-58.75c0-37.5-1.25-55,23.75-83.75l155-172.5c27.5-31.25,40-52.5,47.5-73.75,17.5,32.5,27.5,67.5,27.5,103.75,0,70-38.75,138.75-107.5,185Z"/></svg>